<svg width="143" height="32" viewBox="0 0 143 32" fill="none" xmlns="http://www.w3.org/2000/svg">
<path d="M9.69124 7.72379C8.93281 7.0153 8.45816 6.00314 8.45816 4.87936C8.45816 2.73684 10.1833 1 12.3115 1C14.4396 1 16.1648 2.73684 16.1648 4.87936C16.1648 2.73684 17.89 1 20.0182 1C22.1463 1 23.8715 2.73684 23.8715 4.87936C23.8715 6.00314 23.2056 6.96387 22.6384 7.72379M22.6384 7.72379C23.2056 7.19395 24.0764 6.24261 24.9366 6.01056C26.9922 5.45602 29.1051 6.68417 29.6559 8.7537C30.0295 10.1567 29.589 11.5862 28.626 12.5342M22.6384 7.72379L22.4835 7.86746M9.69124 24.2762C9.124 25.0362 8.45816 25.9969 8.45816 27.1207C8.45816 29.2633 10.1833 31 12.3115 31C14.4396 31 16.1648 29.2633 16.1648 27.1207C16.1648 29.2633 17.89 31 20.0182 31C22.1463 31 23.8715 29.2633 23.8715 27.1207C23.8715 25.9969 23.3969 24.9847 22.6384 24.2762M9.69124 24.2762C9.124 24.8061 8.25324 25.7574 7.39303 25.9894C5.3374 26.5439 3.22444 25.3158 2.67367 23.2463C2.30025 21.8433 2.74066 20.4138 3.70353 19.4658M9.69124 24.2762L9.84611 24.1325M3.52586 12.0649C2.68781 11.1218 2.32405 9.78497 2.67367 8.47138C3.22444 6.40185 5.3374 5.17372 7.39303 5.72823C7.7797 5.83257 8.13683 5.99253 8.45816 6.19729M5.06721 11.8082C3.28339 11.707 1.61295 12.8723 1.13226 14.6784C0.581445 16.7479 1.80136 18.8751 3.85698 19.4296C4.26228 19.5389 4.66985 19.579 5.06721 19.5569M28.8038 19.9351C29.6417 20.8782 30.0057 22.215 29.6559 23.5286C29.1051 25.5981 26.9922 26.8263 24.9366 26.2718C24.55 26.1674 24.1928 26.0075 23.8715 25.8027M27.2625 20.1918C29.0464 20.293 30.7168 19.1277 31.1974 17.3216C31.7484 15.2521 30.5283 13.1249 28.4727 12.5704C28.0672 12.4611 27.6598 12.421 27.2625 12.4431" stroke="url(#paint0_linear_18_20)" stroke-width="2" stroke-linecap="round"/>
<path d="M18.8036 11.5498H13.5288C12.4363 11.5498 11.5508 12.4355 11.5508 13.5279V18.8026C11.5508 19.895 12.4363 20.7806 13.5288 20.7806H18.8036C19.896 20.7806 20.7815 19.895 20.7815 18.8026V13.5279C20.7815 12.4355 19.896 11.5498 18.8036 11.5498Z" stroke="url(#paint1_linear_18_20)" stroke-width="2"/>
<path d="M14.1861 9.90137V11.2201M22.4279 14.1871H21.1092M14.1861 21.1102V22.4289M11.2191 14.1871H9.90039M18.1422 9.90137V11.2201M22.4279 18.1432H21.1092M18.1422 21.1102V22.4289M11.2191 18.1432H9.90039" stroke="url(#paint2_linear_18_20)" stroke-width="2" stroke-linecap="round"/>
<path d="M86.1068 23.336H79.3867V20.136L85.7868 5H89.6268V20.136H91.2908V23.336H89.6268V27.4H86.1068V23.336ZM86.1068 20.136V11.4H86.0428L82.5868 20.136H86.1068Z" fill="#171717"/>
<path d="M63 5H68.024L70.264 21.032H70.328L72.568 5H77.592V27.4H74.264V10.44H74.2L71.64 27.4H68.696L66.136 10.44H66.072V27.4H63V5Z" fill="#171717"/>
<path d="M52 5H55.52V24.2H61.312V27.4H52V5Z" fill="#171717"/>
<path d="M41 5H44.52V24.2H50.312V27.4H41V5Z" fill="#171717"/>
<path d="M128.829 24.872C128.903 25.192 129.031 25.4427 129.213 25.624C129.394 25.8053 129.607 25.9387 129.853 26.024C130.109 26.0987 130.375 26.136 130.653 26.136C131.133 26.136 131.506 26.04 131.773 25.848C132.039 25.656 132.173 25.416 132.173 25.128C132.173 24.8827 132.087 24.6907 131.917 24.552C131.757 24.4027 131.538 24.2853 131.261 24.2C130.994 24.1147 130.706 24.0347 130.397 23.96C130.119 23.8853 129.815 23.8 129.485 23.704C129.165 23.608 128.861 23.48 128.573 23.32C128.295 23.1493 128.066 22.936 127.885 22.68C127.703 22.4133 127.613 22.0773 127.613 21.672C127.613 21.192 127.741 20.776 127.997 20.424C128.263 20.0613 128.626 19.784 129.085 19.592C129.554 19.3893 130.082 19.288 130.669 19.288C131.351 19.288 131.949 19.4373 132.461 19.736C132.983 20.024 133.362 20.4613 133.597 21.048L132.237 21.496C132.162 21.2933 132.039 21.128 131.869 21C131.698 20.872 131.501 20.7867 131.277 20.744C131.063 20.6907 130.85 20.664 130.637 20.664C130.231 20.664 129.895 20.744 129.629 20.904C129.362 21.064 129.229 21.2987 129.229 21.608C129.229 21.7787 129.271 21.9227 129.357 22.04C129.442 22.1467 129.559 22.2373 129.709 22.312C129.869 22.376 130.055 22.4347 130.269 22.488C130.482 22.5413 130.711 22.6 130.957 22.664C131.277 22.76 131.602 22.8667 131.933 22.984C132.263 23.0907 132.567 23.2293 132.845 23.4C133.122 23.5707 133.346 23.7947 133.517 24.072C133.687 24.3493 133.778 24.6907 133.789 25.096C133.789 25.5653 133.655 25.9813 133.389 26.344C133.133 26.7067 132.765 26.9947 132.285 27.208C131.815 27.4107 131.255 27.512 130.605 27.512C129.815 27.512 129.143 27.336 128.589 26.984C128.034 26.632 127.661 26.088 127.469 25.352L128.829 24.872Z" fill="#171717"/>
<path d="M120.821 24.872C120.896 25.192 121.024 25.4427 121.205 25.624C121.386 25.8053 121.6 25.9387 121.845 26.024C122.101 26.0987 122.368 26.136 122.645 26.136C123.125 26.136 123.498 26.04 123.765 25.848C124.032 25.656 124.165 25.416 124.165 25.128C124.165 24.8827 124.08 24.6907 123.909 24.552C123.749 24.4027 123.53 24.2853 123.253 24.2C122.986 24.1147 122.698 24.0347 122.389 23.96C122.112 23.8853 121.808 23.8 121.477 23.704C121.157 23.608 120.853 23.48 120.565 23.32C120.288 23.1493 120.058 22.936 119.877 22.68C119.696 22.4133 119.605 22.0773 119.605 21.672C119.605 21.192 119.733 20.776 119.989 20.424C120.256 20.0613 120.618 19.784 121.077 19.592C121.546 19.3893 122.074 19.288 122.661 19.288C123.344 19.288 123.941 19.4373 124.453 19.736C124.976 20.024 125.354 20.4613 125.589 21.048L124.229 21.496C124.154 21.2933 124.032 21.128 123.861 21C123.69 20.872 123.493 20.7867 123.269 20.744C123.056 20.6907 122.842 20.664 122.629 20.664C122.224 20.664 121.888 20.744 121.621 20.904C121.354 21.064 121.221 21.2987 121.221 21.608C121.221 21.7787 121.264 21.9227 121.349 22.04C121.434 22.1467 121.552 22.2373 121.701 22.312C121.861 22.376 122.048 22.4347 122.261 22.488C122.474 22.5413 122.704 22.6 122.949 22.664C123.269 22.76 123.594 22.8667 123.925 22.984C124.256 23.0907 124.56 23.2293 124.837 23.4C125.114 23.5707 125.338 23.7947 125.509 24.072C125.68 24.3493 125.77 24.6907 125.781 25.096C125.781 25.5653 125.648 25.9813 125.381 26.344C125.125 26.7067 124.757 26.9947 124.277 27.208C123.808 27.4107 123.248 27.512 122.597 27.512C121.808 27.512 121.136 27.336 120.581 26.984C120.026 26.632 119.653 26.088 119.461 25.352L120.821 24.872Z" fill="#171717"/>
<path d="M116.048 27.4L115.92 26.232C115.674 26.6373 115.354 26.952 114.96 27.176C114.576 27.3893 114.074 27.496 113.456 27.496C112.88 27.496 112.389 27.4053 111.984 27.224C111.578 27.032 111.264 26.7707 111.04 26.44C110.826 26.0987 110.72 25.704 110.72 25.256C110.72 24.584 110.97 24.0293 111.472 23.592C111.973 23.144 112.698 22.8667 113.648 22.76L115.92 22.504V21.88C115.92 21.5387 115.781 21.2507 115.504 21.016C115.226 20.7707 114.826 20.648 114.304 20.648C113.813 20.648 113.397 20.7653 113.056 21C112.714 21.224 112.485 21.56 112.368 22.008L111.024 21.528C111.226 20.824 111.621 20.2747 112.208 19.88C112.805 19.4853 113.525 19.288 114.368 19.288C115.37 19.288 116.133 19.5387 116.656 20.04C117.178 20.5413 117.44 21.2027 117.44 22.024V27.4H116.048ZM115.92 23.736L113.728 24.008C113.258 24.072 112.906 24.2053 112.672 24.408C112.437 24.6 112.32 24.856 112.32 25.176C112.32 25.4747 112.432 25.7253 112.656 25.928C112.89 26.12 113.216 26.216 113.632 26.216C114.144 26.216 114.57 26.12 114.912 25.928C115.253 25.736 115.504 25.4693 115.664 25.128C115.834 24.776 115.92 24.3707 115.92 23.912V23.736Z" fill="#171717"/>
<path d="M107.051 15.88H108.555V27.4H107.051V15.88Z" fill="#171717"/>
<path d="M94 21.8C94 20.9573 94.144 20.1893 94.432 19.496C94.72 18.792 95.12 18.1893 95.632 17.688C96.144 17.176 96.736 16.7813 97.408 16.504C98.0907 16.2266 98.8267 16.088 99.616 16.088C100.736 16.088 101.733 16.3493 102.608 16.872C103.493 17.3946 104.165 18.1466 104.624 19.128L103.344 19.592C103.088 19.0906 102.763 18.6853 102.368 18.376C101.973 18.0666 101.541 17.8373 101.072 17.688C100.603 17.5386 100.128 17.464 99.648 17.464C98.8907 17.464 98.2027 17.64 97.584 17.992C96.976 18.344 96.496 18.8453 96.144 19.496C95.8027 20.1466 95.632 20.9146 95.632 21.8C95.632 22.6746 95.8027 23.4373 96.144 24.088C96.496 24.7386 96.976 25.2453 97.584 25.608C98.2027 25.96 98.8907 26.136 99.648 26.136C100.139 26.136 100.624 26.056 101.104 25.896C101.584 25.736 102.032 25.48 102.448 25.128C102.864 24.7653 103.205 24.296 103.472 23.72L104.752 24.168C104.272 25.2986 103.584 26.1413 102.688 26.696C101.792 27.24 100.768 27.512 99.616 27.512C98.8267 27.512 98.0907 27.3733 97.408 27.096C96.736 26.8186 96.144 26.424 95.632 25.912C95.12 25.4 94.72 24.7973 94.432 24.104C94.144 23.4 94 22.632 94 21.8Z" fill="#171717"/>
<defs>
<linearGradient id="paint0_linear_18_20" x1="16.1648" y1="1" x2="16.1648" y2="31" gradientUnits="userSpaceOnUse">
<stop stop-color="#CA3FFF"/>
<stop offset="1" stop-color="#7C44FF"/>
</linearGradient>
<linearGradient id="paint1_linear_18_20" x1="16.1662" y1="11.5498" x2="16.1662" y2="20.7806" gradientUnits="userSpaceOnUse">
<stop stop-color="#CA3FFF"/>
<stop offset="1" stop-color="#7C44FF"/>
</linearGradient>
<linearGradient id="paint2_linear_18_20" x1="16.1641" y1="9.90137" x2="16.1641" y2="22.4289" gradientUnits="userSpaceOnUse">
<stop stop-color="#CA3FFF"/>
<stop offset="1" stop-color="#7C44FF"/>
</linearGradient>
</defs>
</svg>
